<svg xmlns="http://www.w3.org/2000/svg" width="200" height="200"><path fill="#ecf0f1" fill-rule="evenodd" d="M0 0h200v200H0z"/><path d="M24 125.986h10.225V83.203H40.2c2.879 0 5.356.415 7.208 1.615 2.268 1.469 3.776 4.357 3.776 7.519s-1.19 5.962-3.227 7.588c-2.628 2.096-7.256 1.893-11.124 1.893l13.66 24.168h10.708l-11.322-19.25c3.294-.84 6.164-2.328 8.371-5.62 1.702-2.539 2.747-5.9 2.747-9.696 0-5.758-2.267-11.026-6.451-14.122C51.798 75.266 47.27 74 39.376 74H24z" fill="#00aaea"/><path style="line-height:normal;font-variant-ligatures:normal;font-variant-position:normal;font-variant-caps:normal;font-variant-numeric:normal;font-variant-alternates:normal;font-variant-east-asian:normal;font-feature-settings:normal;font-variation-settings:normal;text-indent:0;text-align:start;text-decoration-line:none;text-decoration-style:solid;text-decoration-color:#000;text-transform:none;text-orientation:mixed;white-space:normal;shape-padding:0;shape-margin:0;inline-size:0;isolation:auto;mix-blend-mode:normal;solid-color:#000;solid-opacity:1" d="M88.938 126v-7.56s-8.872-1.542-13.203-2.731c-2.81-.772-4.651-1.695-5.406-3.644-1.186-3.06-.878-4.867-.76-6.753l19.222 3.936v-7.473l-19.174-3.833c.117-1.995.089-2.713.505-4.921.142-.758.478-1.362 1.11-1.765.634-.403 1.672-.658 3.4-.32l14.288 2.808.02-7.09s-4.436-.974-6.274-1.324c-3.083-.586-6.408-1.279-9.36-1.279-3.296 0-5.529.652-7.191 1.884-1.994 1.48-4.927 5.3-4.927 15.047 0 6.255.51 10.118 1.31 12.747.802 2.63 1.981 4.033 2.959 5.005l.01.013.01.01c2.028 2.12 5.732 3.143 9.631 4.045z" color="#000" font-weight="400" font-family="sans-serif" overflow="visible" fill="#91d6f5"/><path d="M91.634 125.986l10.227-1.844v-19.085l16.338-2.947v-8.305l-16.338 2.948v-11.22l16.748-3.024v-8.304l-26.975 4.868zm30.867 0h10.227V74H122.5zM139.895 74v51.986h10.227v-17.844h6.246c7.413 0 10.835-1.276 14.278-4.144 3.218-2.68 5.354-8.01 5.354-13.14 0-5.128-2.02-10.233-5.764-13.277C167.323 75.213 163.852 74 155.27 74zm10.227 9.202h5.63c2.541 0 4.853.251 6.932 1.332 1.973 1.027 3.5 3.162 3.5 6.466 0 3.302-1.512 5.61-3.362 6.607-2.064 1.112-4.324 1.331-6.66 1.331h-6.04z" fill="#00aaea"/></svg>