<svg xmlns="http://www.w3.org/2000/svg" xmlns:xlink="http://www.w3.org/1999/xlink" width="1024" height="665" version="1.2"><path fill="#ecf0f1" paint-order="stroke fill markers" d="M0 0h1024v665H0z"/><path id="g" d="M720.154 282.543l-1.376 2.833h1.18l2.135-2.833z" fill="#000" fill-opacity="1" stroke="none" stroke-width="1" stroke-linecap="round" stroke-linejoin="round" paint-order="stroke fill markers"/><path d="M212 236.324h108.165l78.702 16.669 75.79-16.67h335.62M212 411.996h108.165l78.702 16.667 75.79-16.667H812" fill="none" stroke="#00aaea" stroke-width="1.251"/><path d="M643.099 276.286h1.74v-6.349h2.362c.87 0 1.937.113 2.077 2.07l.114 2.21c.056.707.196 1.756.478 2.069h2.107c-.422-.254-.676-.652-.76-2.239l-.112-2.438c-.084-1.218-.788-2.239-1.995-2.38v-.028c1.632-.397 2.163-2.041 2.163-3.6 0-2.239-1.403-3.572-3.624-3.572h-4.55zm1.74-12.81h2.08c1.601 0 2.557.879 2.557 2.266 0 2.751-1.883 2.751-2.923 2.751h-1.713zm0 0" id="a" fill="#000" fill-opacity="1" stroke="none" stroke-width="1.333"/><path d="M653.956 276.286h7.528v-1.56H655.7v-5.102h5.224v-1.556h-5.224v-4.48h5.562v-1.559h-7.305zm0 0" id="b" fill="#000" fill-opacity="1" stroke="none" stroke-width="1.333"/><path d="M670.533 271.411c-.056 1.729-.364 3.713-2.471 3.713-2.417 0-2.727-2.664-2.727-5.951 0-3.287.31-5.982 2.727-5.982 1.797 0 2.303 1.39 2.33 3.005h1.828c-.084-2.805-1.293-4.449-4.158-4.449-3.907 0-4.552 3.826-4.552 7.426 0 3.57.536 7.397 4.552 7.397 3.09 0 4.13-2.469 4.27-5.159zm0 0" id="c" fill="#000" fill-opacity="1" stroke="none" stroke-width="1.333"/><path d="M674.397 272.063c0 2.92 1.32 4.507 4.128 4.507 2.783 0 4.158-1.787 4.158-4.507v-10.034h-1.74v10.034c0 1.984-.535 3.061-2.418 3.061-1.713 0-2.387-.964-2.387-3.061v-10.034h-1.74zm0 0" id="d" fill="#000" fill-opacity="1" stroke="none" stroke-width="1.333"/><path d="M704.008 265.742c-.028-2.633-1.266-3.997-3.962-3.997-3.567 0-4.13 2.638-4.13 3.94 0 5.244 6.659 2.893 6.659 6.916 0 1.53-1.068 2.523-2.446 2.523-2.556 0-2.64-1.7-2.64-3.315h-1.741c0 3.033.955 4.761 4.27 4.761 1.995 0 4.382-.936 4.382-4.223 0-5.215-6.657-2.836-6.657-6.83 0-1.531.87-2.326 2.33-2.326 1.658 0 2.192 1.049 2.192 2.551zm0 0" id="e" fill="#000" fill-opacity="1" stroke="none" stroke-width="1.333"/><path d="M711.117 261.747c-3.904 0-4.55 3.826-4.55 7.426 0 3.57.646 7.397 4.55 7.397 3.879 0 4.552-3.828 4.552-7.397 0-3.6-.676-7.426-4.552-7.426zm0 1.444c2.417 0 2.727 2.695 2.727 5.982 0 3.287-.31 5.949-2.727 5.949-2.415 0-2.725-2.662-2.725-5.95 0-3.286.31-5.981 2.727-5.981zm0 0" id="f" fill="#000" fill-opacity="1" stroke="none" stroke-width="1.333"/><path d="M737.63 276.286h1.744v-6.036h2.163c2.386 0 4.072-1.475 4.072-4.11 0-4.11-3.147-4.11-4.382-4.11h-3.597zm1.744-12.81h1.937c1.743 0 2.473 1.02 2.473 2.579 0 1.897-1.068 2.777-2.331 2.777h-2.08zm0 0" id="h" fill="#000" fill-opacity="1" stroke="none" stroke-width="1.333"/><path d="M745.686 276.286h1.825l1.04-3.91h4.521l1.014 3.91h1.825l-3.82-14.257h-2.331zm5.197-12.244h.028l1.797 6.887h-3.792zm0 0" id="i" fill="#000" fill-opacity="1" stroke="none" stroke-width="1.333"/><path d="M787.864 276.286h7.475v-1.56h-5.734V262.03h-1.74zm0 0" id="j" fill="#000" fill-opacity="1" stroke="none" stroke-width="1.333"/><path d="M643.099 300.397h1.74v-6.661h5.227v-1.557h-5.226v-4.48h5.564v-1.558h-7.305zm0 0" id="k" fill="#000" fill-opacity="1" stroke="none" stroke-width="1.333"/><path d="M674.95 300.397h1.74v-12.441h.057l3.118 12.441h1.741l3.119-12.441h.028v12.441h1.741v-14.256h-2.92l-2.809 11.31h-.056l-2.839-11.31h-2.92zm0 0"/><path d="M710.78 300.397h1.74v-14.256h-1.74zm0 0" id="l" fill="#000" fill-opacity="1" stroke="none" stroke-width="1.333"/><path d="M726.997 300.397h1.741v-11.536h.028l4.522 11.536h2.417v-14.256h-1.741v11.905h-.056l-4.664-11.905h-2.247zm0 0" id="n" fill="#000" fill-opacity="1" stroke="none" stroke-width="1.333"/><path d="M644.84 311.524h1.827c3.175 0 3.343 2.946 3.343 5.698 0 2.548-.338 5.666-3.343 5.666h-1.827zm-1.741 12.81h3.962c3.876 0 4.774-3.543 4.774-7.112 0-3.941-.56-7.144-4.944-7.144h-3.792zm0 0" id="o" fill="#000" fill-opacity="1" stroke="none" stroke-width="1.333"/><path d="M751.673 341.326h2.08c1.515 0 2.75.738 2.75 2.695 0 1.387-.615 2.633-2.47 2.633h-2.36zm-1.743 6.777h3.823c2.948 0 4.577-1.193 4.577-4.082 0-1.757-.757-3.09-2.498-3.516v-.028c1.263-.367 2.05-1.67 2.05-2.974 0-2.778-1.799-3.657-3.624-3.657h-4.328zm1.743-12.81h1.937c1.716 0 2.445.848 2.445 2.322 0 2.21-1.657 2.38-2.386 2.38h-1.996zm0 0"/><use xlink:href="#a" transform="translate(42.326)" width="100%" height="100%" stroke-width=".427"/><use xlink:href="#a" transform="translate(114.39)" width="100%" height="100%" stroke-width=".427"/><use xlink:href="#a" transform="translate(20.966 24.111)" width="100%" height="100%" stroke-width=".427"/><use xlink:href="#a" transform="translate(40.006 48.049)" width="100%" height="100%" stroke-width=".427"/><use xlink:href="#a" transform="translate(103.652 48.049)" width="100%" height="100%" stroke-width=".427"/><use xlink:href="#b" transform="translate(.564 48.049)" width="100%" height="100%" stroke-width=".427"/><use xlink:href="#b" transform="translate(60.97 48.049)" width="100%" height="100%" stroke-width=".427"/><use xlink:href="#b" transform="translate(103.652 48.049)" width="100%" height="100%" stroke-width=".427"/><use xlink:href="#b" transform="translate(144.66 48.049)" width="100%" height="100%" stroke-width=".427"/><use xlink:href="#b" transform="translate(-10.857 71.817)" width="100%" height="100%" stroke-width=".427"/><use xlink:href="#c" transform="translate(36.214 24.111)" width="100%" height="100%" stroke-width=".427"/><use xlink:href="#c" transform="translate(108.997 24.111)" width="100%" height="100%" stroke-width=".427"/><use xlink:href="#c" transform="translate(11.589 71.817)" width="100%" height="100%" stroke-width=".427"/><use xlink:href="#c" transform="translate(32.93 71.817)" width="100%" height="100%" stroke-width=".427"/><use xlink:href="#d" transform="translate(-10.127 71.817)" width="100%" height="100%" stroke-width=".427"/><use xlink:href="#e" transform="translate(22.073)" width="100%" height="100%" stroke-width=".427"/><use xlink:href="#e" transform="translate(28.397 48.049)" width="100%" height="100%" stroke-width=".427"/><use xlink:href="#e" transform="translate(71.076 48.049)" width="100%" height="100%" stroke-width=".427"/><use xlink:href="#e" transform="translate(74.99 71.817)" width="100%" height="100%" stroke-width=".427"/><use xlink:href="#f" transform="translate(-54.29 24.111)" width="100%" height="100%" stroke-width=".427"/><use xlink:href="#f" transform="translate(8.643 24.111)" width="100%" height="100%" stroke-width=".427"/><use xlink:href="#f" transform="translate(-12.8 48.049)" width="100%" height="100%" stroke-width=".427"/><use xlink:href="#f" transform="translate(28.397 48.049)" width="100%" height="100%" stroke-width=".427"/><use xlink:href="#f" transform="translate(5.36 71.817)" width="100%" height="100%" stroke-width=".427"/><use xlink:href="#g" transform="translate(-3.284 47.703)" width="100%" height="100%" stroke-width=".427"/><use xlink:href="#h" transform="translate(-64.634 48.049)" width="100%" height="100%" stroke-width=".427"/><use xlink:href="#i" transform="translate(21.341)" width="100%" height="100%" stroke-width=".427"/><use xlink:href="#i" transform="translate(50.234)" width="100%" height="100%" stroke-width=".427"/><use xlink:href="#i" transform="translate(-57.567 24.111)" width="100%" height="100%" stroke-width=".427"/><use xlink:href="#i" transform="translate(41.186 24.111)" width="100%" height="100%" stroke-width=".427"/><use xlink:href="#i" transform="translate(-60.851 71.817)" width="100%" height="100%" stroke-width=".427"/><use xlink:href="#i" transform="translate(13.782 71.817)" width="100%" height="100%" stroke-width=".427"/><use xlink:href="#g" transform="translate(44.962 47.703)" width="100%" height="100%" stroke-width=".427"/><use xlink:href="#i" transform="translate(50.234 71.817)" width="100%" height="100%" stroke-width=".427"/><use xlink:href="#j" transform="translate(10.808 24.111)" width="100%" height="100%" stroke-width=".427"/><use xlink:href="#k" transform="translate(62.455 23.937)" width="100%" height="100%" stroke-width=".427"/><use x="0" y="0" xlink:href="#l" id="m" transform="translate(41.08)" width="100%" height="100%" stroke-width=".427"/><use xlink:href="#m" transform="translate(16.218)" width="100%" height="100%" stroke-width=".427"/><use xlink:href="#l" transform="translate(72.785)" width="100%" height="100%" stroke-width=".427"/><use xlink:href="#l" transform="translate(-3.284 47.705)" width="100%" height="100%" stroke-width=".427"/><use xlink:href="#l" transform="translate(70.974 47.705)" width="100%" height="100%" stroke-width=".427"/><use xlink:href="#n" transform="translate(29.49)" width="100%" height="100%" stroke-width=".427"/><use xlink:href="#n" transform="translate(-3.284 47.705)" width="100%" height="100%" stroke-width=".427"/><use xlink:href="#o" transform="translate(144.097)" width="100%" height="100%" stroke-width=".427"/><use xlink:href="#o" transform="translate(9.92 23.768)" width="100%" height="100%" stroke-width=".427"/><use xlink:href="#c" transform="translate(122.674 71.817)" width="100%" height="100%" stroke-width=".427"/><path d="M650.592 361.03h-6.381v25.843h3.873v-21.511h.063l5.168 21.51h3.454l5.163-21.51h.077v21.51h3.862v-25.841h-6.242l-4.478 19.138z" fill="#91d6f5"/><path id="p" d="M682.34 387.084c.76 0 1.441-.251 1.903-.463v-2.535a1.52 1.533 0 01-.646.11c-.573 0-1.007-.65-1.007-1.372l.005-11.144c0-3.452-2.718-4.785-6.13-4.785-5.098 0-6.783 2.281-6.783 6.443h3.655c0-1.91.364-3.779 2.948-3.779 2.038 0 2.658 1.136 2.658 2.935 0 1.7-.858 2.11-2.27 2.5l-3.019.83c-2.657.733-4.478 1.768-4.478 6.099 0 3.72 1.94 5.45 5.021 5.45 2.268 0 3.774-.93 4.846-2.852.149 1.88 1.58 2.563 3.298 2.563zm-3.4-10.47v3.252c0 2.854-1.147 4.62-3.492 4.62-1.608 0-2.4-1.3-2.4-2.92 0-1.444.463-2.613 1.575-3.142 1.156-.548 3.315-1.011 4.317-1.81z" fill="#91d6f5" fill-opacity="1" fill-rule="nonzero" stroke="none" stroke-width="1.333"/><path id="q" d="M687.548 361.868v5.528h-2.653v2.9h2.653v12.09c0 3.974 1.286 4.698 3.906 4.698 1.222 0 2.303-.11 3.128-.32v-2.89a8.107 8.178 0 01-1.412.102c-1.32 0-1.749-.546-1.749-2.067v-11.616h3.161v-2.897h-3.16v-5.528z" fill="#91d6f5" fill-opacity="1" fill-rule="nonzero" stroke="none" stroke-width="1.333"/><path d="M703.255 366.895c-6.067 0-7.132 5.418-7.132 10.527 0 9.018 3.909 9.952 7.067 9.952 4.195 0 6.78-2.71 6.78-7.017h-3.657c0 1.154-.326 4.352-3.09 4.352-2.907 0-3.238-3.339-3.238-5.949v-1.128h10.085v-2.05c0-5.433-1.433-8.687-6.815-8.687zm-.032 2.664c2.19 0 2.983 1.888 2.983 4.355v1.046h-6.22v-.39c0-2.544.759-5.008 3.237-5.008zm13.947-2.163h-3.654v19.477h3.873v-13.07c0-2.532 1.51-3.797 3.052-3.797 1.617 0 2.377.976 2.377 3.508v13.359h3.862v-13.07c0-2.532 1.508-3.797 3.093-3.797 1.574 0 2.336.976 2.336 3.508v13.359h3.864v-14.814c0-3.755-1.958-5.164-4.69-5.164-2.333 0-3.775 1.077-4.89 2.954-.57-1.623-1.715-2.954-4.477-2.954-1.827 0-3.722 1.047-4.746 2.78zm29.422-7.743l-2.144 5.213h2.65l3.811-5.213z" fill="#91d6f5"/><use xlink:href="#p" transform="translate(70.034)" width="100%" height="100%" stroke-width=".427"/><use xlink:href="#q" transform="translate(70.034)" width="100%" height="100%" stroke-width=".427"/><path d="M784.088 379.779c0 2.932-.792 4.721-2.95 4.707-2.798-.019-3.303-3.043-3.303-7.35 0-4.31.505-7.309 3.302-7.353 2.268-.033 2.774 2.276 2.774 4.086h3.865c0-2.422-.858-7.011-6.639-6.974-5.594.04-7.167 4.186-7.167 10.24 0 6.053 1.576 10.239 7.167 10.239 4.779 0 6.352-2.933 6.606-7.595zm-17.218-19.047v3.908h3.874v-3.908zm0 6.664v19.477h3.874v-19.477z" fill="#91d6f5"/><use xlink:href="#p" transform="translate(120.788)" width="100%" height="100%" stroke-width=".427"/><path d="M214.599 395.413h27.846v-114.84h16.27c7.84 0 14.586 1.114 19.63 4.335 6.174 3.944 10.281 11.696 10.281 20.183 0 8.488-3.24 16.003-8.787 20.368-7.156 5.626-19.761 5.081-30.292 5.081l37.198 64.873h29.159l-30.832-51.67c8.97-2.255 16.786-6.25 22.797-15.089 4.634-6.812 7.48-15.834 7.48-26.025 0-15.456-6.172-29.595-17.567-37.905-7.482-5.455-19.813-8.853-41.312-8.853h-41.871z" fill="#00aaea"/><path style="line-height:normal;font-variant-ligatures:normal;font-variant-position:normal;font-variant-caps:normal;font-variant-numeric:normal;font-variant-alternates:normal;font-variant-east-asian:normal;font-feature-settings:normal;font-variation-settings:normal;text-indent:0;text-align:start;text-decoration-line:none;text-decoration-style:solid;text-decoration-color:#000;text-transform:none;text-orientation:mixed;white-space:normal;shape-padding:0;shape-margin:0;inline-size:0;isolation:auto;mix-blend-mode:normal;solid-color:#000;solid-opacity:1" d="M391.439 395.45v-20.292s-24.161-4.14-35.955-7.332c-7.653-2.071-12.666-4.55-14.722-9.78-3.23-8.213-2.389-13.064-2.067-18.126l52.343 10.565v-20.06l-52.215-10.288c.32-5.356.242-7.284 1.375-13.21.387-2.034 1.303-3.656 3.025-4.738 1.725-1.082 4.553-1.766 9.256-.856l38.911 7.536.054-19.03s-12.081-2.617-17.085-3.555c-8.396-1.575-17.451-3.433-25.49-3.433-8.974 0-15.055 1.75-19.582 5.055-5.43 3.974-13.418 14.227-13.418 40.39 0 16.79 1.387 27.16 3.568 34.216 2.184 7.059 5.396 10.826 8.058 13.434l.028.033.028.028c5.52 5.693 15.607 8.437 26.226 10.859z" color="#000" font-weight="400" font-family="sans-serif" overflow="visible" fill="#91d6f5"/><path d="M398.781 395.413l27.849-4.95v-51.228l44.493-7.912v-22.29l-44.493 7.913V286.83l45.61-8.12v-22.289l-73.459 13.067zm84.057 0h27.849V255.871h-27.85zm47.367-139.542v139.542h27.851v-47.898h17.008c20.187 0 29.508-3.424 38.883-11.122 8.764-7.196 14.58-21.504 14.58-35.272 0-13.765-5.501-27.466-15.696-35.638-7.932-6.355-17.386-9.612-40.755-9.612zm27.851 24.701h15.332c6.92 0 13.214.673 18.878 3.575 5.372 2.755 9.528 8.488 9.528 17.355 0 8.865-4.116 15.061-9.153 17.735-5.622 2.986-11.775 3.574-18.136 3.574h-16.449z" fill="#00aaea"/></svg>