<svg xmlns="http://www.w3.org/2000/svg" height="35" width="35"><path d="M7.504 3a1.42 1.393 0 011.338 1.031l2.361 8.646.99-.26a3.335 3.285 0 013.998 2.047L5.05 17.392a3.318 3.268 0 012.42-3.733l.991-.262L6.1 4.752a1.42 1.393 0 011.003-1.705A1.42 1.393 0 017.505 3zm20.72 6.513a.724.71 0 01.612.316.724.71 0 01-.201.986.724.71 0 01-1.005-.197.724.71 0 01.203-.986.724.71 0 01.392-.12zm-3.41 2.322a1.53 1.5 0 011.238.668 1.53 1.5 0 01-.426 2.08 1.53 1.5 0 01-2.122-.416 1.53 1.5 0 01.426-2.08 1.53 1.5 0 01.883-.252zm-8.462 3.627a1.523 1.5 0 011.347.812c2.66 5.09 6.647 5.867 9.877 6.704a1.523 1.5 0 01.593 2.597c-4.575 3.794-9.727 4.958-17.946 5.422a1.523 1.5 0 01-1.477-.879c-1.72-3.75-3.146-6.944-3.482-10.36a1.523 1.5 0 011.368-1.638 1.523 1.5 0 011.666 1.35c.243 2.498 1.352 5.207 2.812 8.441 1.602-.107 3.13-.23 4.443-.406-1.616-1.714-3.21-3.57-5.089-6.817a1.523 1.5 0 01.569-2.046 1.523 1.5 0 012.076.56c2.244 3.88 3.847 5.515 5.924 7.623 1.745-.442 3.283-1.063 4.685-1.873-2.94-1.023-6.42-2.892-8.726-7.305a1.523 1.5 0 01.656-2.02 1.523 1.5 0 01.704-.165zm11.486.297a2.173 2.132 0 011.797.949 2.173 2.132 0 01-.603 2.957 2.173 2.132 0 01-3.015-.592 2.173 2.132 0 01.605-2.957 2.173 2.132 0 011.216-.357z" fill="#000002" paint-order="stroke markers fill"/></svg>